<svg class="main-svg" xmlns="http://www.w3.org/2000/svg" xmlns:xlink="http://www.w3.org/1999/xlink" width="700" height="500" style="" viewBox="0 0 700 500"><rect x="0" y="0" width="700" height="500" style="fill: rgb(255, 255, 255); fill-opacity: 1;"/><defs id="defs-2d91dd"><g class="clips"><clipPath id="clip2d91ddxyplot" class="plotclip"><rect width="540" height="320"/></clipPath><clipPath class="axesclip" id="clip2d91ddx"><rect x="80" y="0" width="540" height="500"/></clipPath><clipPath class="axesclip" id="clip2d91ddy"><rect x="0" y="100" width="700" height="320"/></clipPath><clipPath class="axesclip" id="clip2d91ddxy"><rect x="80" y="100" width="540" height="320"/></clipPath></g><g class="gradients"/><g class="patterns"/></defs><g class="bglayer"/><g class="layer-below"><g class="imagelayer"/><g class="shapelayer"/></g><g class="cartesianlayer"><g class="subplot xy"><g class="layer-subplot"><g class="shapelayer"/><g class="imagelayer"/></g><g class="minor-gridlayer"><g class="x"/><g class="y"/></g><g class="gridlayer"><g class="x"><path class="xgrid crisp" transform="translate(190.13,0)" d="M0,100v320" style="stroke: rgb(235, 240, 248); stroke-opacity: 1; stroke-width: 1px;"/><path class="xgrid crisp" transform="translate(296.71000000000004,0)" d="M0,100v320" style="stroke: rgb(235, 240, 248); stroke-opacity: 1; stroke-width: 1px;"/><path class="xgrid crisp" transform="translate(406.84,0)" d="M0,100v320" style="stroke: rgb(235, 240, 248); stroke-opacity: 1; stroke-width: 1px;"/><path class="xgrid crisp" transform="translate(516.97,0)" d="M0,100v320" style="stroke: rgb(235, 240, 248); stroke-opacity: 1; stroke-width: 1px;"/></g><g class="y"><path class="ygrid crisp" transform="translate(0,361.78)" d="M80,0h540" style="stroke: rgb(235, 240, 248); stroke-opacity: 1; stroke-width: 1px;"/><path class="ygrid crisp" transform="translate(0,303.95)" d="M80,0h540" style="stroke: rgb(235, 240, 248); stroke-opacity: 1; stroke-width: 1px;"/><path class="ygrid crisp" transform="translate(0,246.12)" d="M80,0h540" style="stroke: rgb(235, 240, 248); stroke-opacity: 1; stroke-width: 1px;"/><path class="ygrid crisp" transform="translate(0,188.29000000000002)" d="M80,0h540" style="stroke: rgb(235, 240, 248); stroke-opacity: 1; stroke-width: 1px;"/><path class="ygrid crisp" transform="translate(0,130.46)" d="M80,0h540" style="stroke: rgb(235, 240, 248); stroke-opacity: 1; stroke-width: 1px;"/></g></g><g class="zerolinelayer"><path class="yzl zl crisp" transform="translate(0,419.61)" d="M80,0h540" style="stroke: rgb(235, 240, 248); stroke-opacity: 1; stroke-width: 2px;"/></g><g class="layer-between"><g class="shapelayer"/><g class="imagelayer"/></g><path class="xlines-below"/><path class="ylines-below"/><g class="overlines-below"/><g class="xaxislayer-below"/><g class="yaxislayer-below"/><g class="overaxes-below"/><g class="overplot"><g class="xy" transform="translate(80,100)" clip-path="url(#clip2d91ddxyplot)"><g class="scatterlayer mlayer"><g class="trace scatter trace2d9e7c" style="stroke-miterlimit: 2; opacity: 1;"><g class="fills"/><g class="errorbars"/><g class="lines"><path class="js-line" d="M0,173.3L3.55,193.25L7.11,123.28L10.66,153.93L14.21,273.64L17.76,270.75L21.32,170.41L24.87,183.42L28.42,140.63L31.97,146.41L35.53,147.86L39.08,114.89L42.63,232.87L46.18,208L49.74,154.22L53.29,158.55L56.84,186.02L60.39,146.41L63.95,270.46L67.5,212.92L71.05,134.84L74.61,136.87L78.16,188.05L81.71,16L85.26,186.89L88.82,255.42L92.37,304L99.47,172.72L103.03,170.12L106.58,67.47L110.13,160.29L113.68,205.11L117.24,232.58L120.79,188.63L124.34,111.42L127.89,146.7L131.45,197.3L135,211.18L138.55,261.49L142.11,198.46L145.66,109.4L149.21,114.89L152.76,85.69L156.32,121.54L159.87,257.16L163.42,285.2L166.97,186.6L170.53,141.49L174.08,193.83L177.63,176.77L181.18,119.23L184.74,257.16L188.29,289.54L191.84,197.3L195.39,136.87L198.95,106.51L202.5,53.3L206.05,136.29L209.61,257.45L213.16,288.1L216.71,179.66L220.26,153.06L223.82,158.84L227.37,272.77L230.92,206.55L234.47,278.27L238.03,299.37L241.58,196.43L245.13,131.66L252.24,177.06L255.79,174.17L259.34,260.05L262.89,292.43L266.45,203.37L270,158.84L273.55,122.41L277.11,178.51L280.66,195.86L284.21,248.19L287.76,292.14L291.32,196.72L294.87,132.53L298.42,165.78L301.97,179.66L305.53,176.48L309.08,258.6L312.63,284.92L316.18,208.58L319.74,172.72L323.29,180.53L326.84,118.94L330.39,120.67L333.95,267.57L337.5,280.29L341.05,180.82L344.61,177.06L348.16,106.51L351.71,170.41L355.26,146.7L358.82,240.67L362.37,249.93L365.92,182.55L369.47,133.11L373.03,181.69L376.58,165.49L380.13,112L383.68,247.33L387.24,257.73L390.79,201.06L394.34,55.04L397.89,85.11L401.45,135.13L405,147.28L408.55,239.23L412.11,284.34L419.21,137.73L422.76,140.34L426.32,145.54L429.87,163.47L433.42,249.35L436.97,275.37L440.53,280.29L444.08,170.7L447.63,83.95L451.18,131.08L454.74,104.48L458.29,236.34L461.84,292.43L465.39,184L468.95,170.7L472.5,176.77L476.05,123.86L479.61,148.14L483.16,260.05L486.71,283.76L490.26,187.47L493.82,120.67L497.37,117.2L500.92,101.59L508.03,223.04L511.58,256.58L515.13,169.83L518.68,43.76L522.24,120.1L525.79,52.43L529.34,96.1L532.89,236.34L536.45,186.31L540,159.71" style="vector-effect: none; fill: none; stroke: rgb(0, 204, 150); stroke-opacity: 1; stroke-width: 2px; opacity: 1;"/></g><g class="points"/><g class="text"/></g></g></g></g><path class="xlines-above crisp" d="M0,0" style="fill: none;"/><path class="ylines-above crisp" d="M0,0" style="fill: none;"/><g class="overlines-above"/><g class="xaxislayer-above"><g class="xtick"><text text-anchor="middle" x="0" y="433" transform="translate(80,0)" style="font-family: Georgia; font-size: 12px; fill: rgb(42, 63, 95); fill-opacity: 1; white-space: pre; opacity: 1;">May 2024</text></g><g class="xtick"><text text-anchor="middle" x="0" y="433" style="font-family: Georgia; font-size: 12px; fill: rgb(42, 63, 95); fill-opacity: 1; white-space: pre; opacity: 1;" transform="translate(190.13,0)">Jun 2024</text></g><g class="xtick"><text text-anchor="middle" x="0" y="433" style="font-family: Georgia; font-size: 12px; fill: rgb(42, 63, 95); fill-opacity: 1; white-space: pre; opacity: 1;" transform="translate(296.71000000000004,0)">Jul 2024</text></g><g class="xtick"><text text-anchor="middle" x="0" y="433" style="font-family: Georgia; font-size: 12px; fill: rgb(42, 63, 95); fill-opacity: 1; white-space: pre; opacity: 1;" transform="translate(406.84,0)">Aug 2024</text></g><g class="xtick"><text text-anchor="middle" x="0" y="433" style="font-family: Georgia; font-size: 12px; fill: rgb(42, 63, 95); fill-opacity: 1; white-space: pre; opacity: 1;" transform="translate(516.97,0)">Sep 2024</text></g></g><g class="yaxislayer-above"><g class="ytick"><text text-anchor="end" x="79" y="4.199999999999999" transform="translate(0,419.61)" style="font-family: Georgia; font-size: 12px; fill: rgb(42, 63, 95); fill-opacity: 1; white-space: pre; opacity: 1;">0</text></g><g class="ytick"><text text-anchor="end" x="79" y="4.199999999999999" style="font-family: Georgia; font-size: 12px; fill: rgb(42, 63, 95); fill-opacity: 1; white-space: pre; opacity: 1;" transform="translate(0,361.78)">200</text></g><g class="ytick"><text text-anchor="end" x="79" y="4.199999999999999" style="font-family: Georgia; font-size: 12px; fill: rgb(42, 63, 95); fill-opacity: 1; white-space: pre; opacity: 1;" transform="translate(0,303.95)">400</text></g><g class="ytick"><text text-anchor="end" x="79" y="4.199999999999999" style="font-family: Georgia; font-size: 12px; fill: rgb(42, 63, 95); fill-opacity: 1; white-space: pre; opacity: 1;" transform="translate(0,246.12)">600</text></g><g class="ytick"><text text-anchor="end" x="79" y="4.199999999999999" style="font-family: Georgia; font-size: 12px; fill: rgb(42, 63, 95); fill-opacity: 1; white-space: pre; opacity: 1;" transform="translate(0,188.29000000000002)">800</text></g><g class="ytick"><text text-anchor="end" x="79" y="4.199999999999999" style="font-family: Georgia; font-size: 12px; fill: rgb(42, 63, 95); fill-opacity: 1; white-space: pre; opacity: 1;" transform="translate(0,130.46)">1000</text></g></g><g class="overaxes-above"/></g></g><g class="polarlayer"/><g class="smithlayer"/><g class="ternarylayer"/><g class="geolayer"/><g class="funnelarealayer"/><g class="pielayer"/><g class="iciclelayer"/><g class="treemaplayer"/><g class="sunburstlayer"/><g class="glimages"/><defs id="topdefs-2d91dd"><g class="clips"/></defs><g class="layer-above"><g class="imagelayer"/><g class="shapelayer"/></g><g class="infolayer"><g class="g-gtitle"><text class="gtitle" x="35" y="50" text-anchor="start" dy="0em" style="opacity: 1; font-family: Georgia; font-size: 16px; fill: rgb(42, 63, 95); fill-opacity: 1; white-space: pre;">Job Posting Trends Over Time</text></g><g class="g-xtitle"><text class="xtitle" x="350" y="460.3" text-anchor="middle" style="opacity: 1; font-family: Georgia; font-size: 14px; fill: rgb(42, 63, 95); fill-opacity: 1; white-space: pre;">POSTED_DATE</text></g><g class="g-ytitle"><text class="ytitle" transform="rotate(-90,27.6,260)" x="27.6" y="260" text-anchor="middle" style="opacity: 1; font-family: Georgia; font-size: 14px; fill: rgb(42, 63, 95); fill-opacity: 1; white-space: pre;">Number_of_Job_Postings</text></g></g></svg>